<svg width="142" height="40" viewBox="0 0 142 40" fill="none" xmlns="http://www.w3.org/2000/svg">
<path d="M0 0H15.3151C18.3653 0 21.0046 0.457876 23.2329 1.37363C25.4795 2.28938 27.2055 3.64469 28.411 5.43956C29.6164 7.23443 30.2192 9.45055 30.2192 12.0879C30.2192 14.2857 29.863 16.1538 29.1507 17.6923C28.4384 19.2308 27.4338 20.5037 26.137 21.511C24.8584 22.5183 23.3607 23.3333 21.6438 23.956L18.7397 25.5494H5.69863L5.64384 18.5989H15.3425C16.6758 18.5989 17.7808 18.3608 18.6575 17.8846C19.5342 17.4084 20.1918 16.7399 20.6301 15.8791C21.0868 15 21.3151 13.9744 21.3151 12.8022C21.3151 11.5934 21.0868 10.5494 20.6301 9.67033C20.1735 8.79121 19.4977 8.12271 18.6027 7.66483C17.726 7.18864 16.6301 6.95055 15.3151 6.95055H8.93151V40H0V0ZM22.0822 40L13.1233 22.2253L22.5479 22.1978L31.6438 39.5879V40H22.0822Z" fill="#012839"/>
<path d="M50.4658 31.1264L59.3425 0H69.2877L55.6164 40H49.1233L50.4658 31.1264ZM42.3836 0L51.2329 31.1264L52.6301 40H46.0548L32.4658 0H42.3836Z" fill="#012839"/>
<path d="M105.507 0V40H96.6027L81.5342 14.1484V40H72.6027V0H81.5342L96.6301 25.8516V0H105.507Z" fill="#012839"/>
<path d="M129.863 0V40H120.959V0H129.863ZM142 0V6.95055H109.068V0H142Z" fill="#012839"/>
</svg>
